<svg width="127" height="127" viewBox="0 0 127 127" fill="none" xmlns="http://www.w3.org/2000/svg">
<path d="M11.684 10.8839H26.4859V116.116H11.684V10.8839Z" fill="#7B8882"/>
<path d="M100.514 39.9161H115.316V116.116H100.514V39.9161Z" fill="#96919C"/>
<path d="M11.684 112.484H115.316V127H11.684V112.484Z" fill="#798386"/>
<path d="M11.684 0H70.9041V14.5161H11.684V0Z" fill="#ADACA4"/>
<path d="M100.514 29.0259V14.5161H85.706V0H70.9041V43.542H115.316V29.0259" fill="#B1A9A9"/>
<path d="M100.514 58.0581V43.542H115.316" fill="#5A575E"/>
<path fill-rule="evenodd" clip-rule="evenodd" d="M70.9041 0V14.5161H56.0959" fill="#686762"/>
<path d="M37 91H91L64 44L37 91ZM66.4545 83.5789H61.5455V78.6316H66.4545V83.5789ZM66.4545 73.6842H61.5455V63.7895H66.4545V73.6842Z" fill="#EB0000"/>
</svg>
